<?xml version="1.0" standalone="no"?>
<!DOCTYPE svg PUBLIC "-//W3C//DTD SVG 20010904//EN"
 "http://www.w3.org/TR/2001/REC-SVG-20010904/DTD/svg10.dtd">
<svg version="1.0" xmlns="http://www.w3.org/2000/svg"
 width="2000.000000pt" height="2000.000000pt" viewBox="0 0 2000.000000 2000.000000"
 preserveAspectRatio="xMidYMid meet">

<g transform="translate(0.000000,2000.000000) scale(0.100000,-0.100000)"
fill="#000000" stroke="none">
<path d="M9075 18593 c-548 -38 -999 -262 -1229 -612 -143 -218 -217 -464
-233 -772 l-6 -127 84 -6 c179 -12 551 -26 560 -21 5 4 9 25 9 48 0 40 35 450
45 532 l6 40 467 -42 c257 -23 598 -53 757 -67 160 -14 542 -49 850 -76 308
-28 711 -64 895 -80 902 -80 1379 -122 1630 -145 151 -14 556 -50 900 -80
1139 -101 1963 -175 2110 -190 153 -15 246 -38 319 -80 24 -14 46 -24 48 -22
5 6 -147 255 -222 362 -184 265 -461 548 -725 742 -362 266 -762 439 -1170
507 -411 69 -744 36 -1305 -126 -558 -161 -812 -199 -1172 -178 -324 19 -541
57 -1133 195 -740 173 -1116 223 -1485 198z"/>
<path d="M5753 18330 c-74 -15 -142 -51 -183 -97 -37 -42 -70 -115 -70 -155 0
-23 -3 -23 -49 6 -105 67 -248 110 -366 110 -104 1 -156 -18 -223 -79 -67 -60
-96 -131 -100 -248 -3 -69 -8 -97 -16 -94 -87 34 -281 41 -370 14 -211 -65
-259 -363 -93 -580 21 -26 37 -49 37 -51 0 -2 -24 -6 -52 -9 -112 -12 -203
-74 -254 -174 -25 -50 -29 -71 -32 -155 -8 -222 101 -453 285 -603 32 -26 68
-52 81 -58 21 -10 22 -15 17 -76 -9 -91 9 -222 40 -290 33 -72 95 -135 167
-172 65 -33 163 -59 223 -59 39 0 40 -1 77 -73 59 -113 150 -214 238 -265 112
-63 174 -85 392 -132 80 -18 301 -7 393 19 99 28 180 66 253 118 57 40 62 42
58 21 -3 -13 -8 -50 -11 -83 -4 -33 -18 -111 -33 -174 l-26 -114 -101 7 c-139
10 -1388 18 -1455 10 -45 -6 -62 -14 -92 -44 -38 -38 -39 -41 -58 -155 -15
-93 -43 -140 -110 -187 -31 -21 -60 -49 -65 -65 -11 -29 -30 -51 -185 -217
-260 -276 -421 -491 -619 -826 -209 -353 -482 -1003 -559 -1330 -66 -281 -54
-592 34 -873 71 -226 203 -469 372 -686 l65 -84 -17 -31 c-9 -17 -75 -116
-147 -219 -123 -179 -238 -334 -556 -753 -166 -218 -211 -280 -195 -270 14 8
157 -40 378 -127 118 -46 166 -61 178 -55 18 10 46 -5 46 -26 0 -6 42 -29 93
-51 116 -50 437 -212 497 -250 25 -16 59 -30 75 -30 23 0 31 -5 33 -22 2 -13
7 -23 11 -23 9 0 159 -99 214 -142 23 -17 43 -32 44 -33 2 -1 -6 -80 -17 -176
-12 -96 -25 -212 -31 -259 -5 -47 -18 -155 -29 -240 -10 -85 -26 -227 -35
-315 -9 -88 -23 -216 -31 -285 -16 -133 -31 -290 -74 -790 -5 -58 -14 -150
-19 -205 -10 -101 -22 -242 -41 -505 -15 -196 -19 -230 -32 -230 -52 0 -294
92 -459 175 -203 102 -329 194 -505 369 -173 174 -259 294 -381 533 -37 72
-64 113 -76 117 -16 4 -19 11 -14 35 4 21 -4 58 -28 123 -102 277 -165 613
-184 982 -5 105 -12 161 -19 164 -17 5 -15 49 2 55 11 4 14 35 15 139 1 152
19 408 31 456 18 68 -9 26 -92 -145 -208 -429 -301 -815 -300 -1258 0 -356 55
-593 208 -896 357 -707 744 -1152 1289 -1484 112 -68 316 -174 415 -215 30
-13 56 -24 58 -25 1 -1 -4 -125 -13 -276 -8 -151 -21 -438 -29 -639 -9 -201
-18 -433 -22 -517 l-6 -152 38 -10 c82 -21 392 -53 749 -76 285 -19 917 -30
995 -18 l55 8 79 560 c43 308 79 561 80 562 1 2 56 -8 122 -21 65 -13 173 -34
239 -46 225 -40 225 -40 225 -58 0 -9 11 -147 25 -307 13 -159 29 -344 35
-410 5 -66 14 -171 19 -233 5 -63 12 -117 16 -120 4 -4 149 -7 323 -6 292 0
330 3 487 27 246 39 432 86 605 154 175 68 218 86 334 144 82 41 126 68 126
78 0 9 -7 117 -15 240 -8 124 -13 227 -10 229 2 3 111 -1 242 -7 1805 -88
3808 46 5898 395 841 140 1322 278 1830 523 470 227 825 505 1078 843 212 284
318 591 318 923 0 253 -39 421 -149 640 -112 225 -242 396 -592 779 -184 202
-340 386 -340 400 0 6 48 26 108 44 59 18 181 63 272 99 891 357 1444 979
1641 1846 16 71 29 133 29 138 0 11 -21 2 -205 -86 -77 -37 -189 -91 -250
-120 -105 -50 -190 -91 -510 -245 -77 -37 -210 -101 -295 -143 -85 -41 -236
-114 -335 -161 -99 -48 -196 -94 -215 -104 -33 -17 -37 -24 -74 -150 -22 -72
-41 -130 -43 -128 -8 7 41 362 52 376 6 8 37 98 68 200 31 102 95 313 142 470
48 157 90 296 95 310 4 14 29 95 55 180 l47 156 -96 199 c-84 175 -96 207 -96
253 0 60 9 66 30 20 77 -175 183 -380 190 -368 7 14 362 1177 375 1232 6 21
-4 46 -43 115 -27 48 -70 126 -95 173 -25 47 -91 168 -146 270 -88 161 -101
191 -101 233 0 26 3 47 8 47 6 0 127 -220 367 -667 l40 -75 38 124 c21 68 46
152 57 188 11 36 58 191 105 345 47 154 98 318 112 365 14 47 36 120 49 163
13 43 24 82 24 87 0 20 -441 -263 -722 -464 -48 -34 -68 -43 -68 -32 0 9 77
627 171 1373 182 1451 179 1416 143 1572 -81 355 -384 624 -747 665 l-58 6 15
-27 c7 -16 22 -54 32 -86 13 -41 26 -63 44 -72 20 -12 21 -14 6 -15 -14 0 -17
-5 -13 -22 8 -32 10 -170 3 -188 -3 -8 -19 -170 -36 -360 -44 -502 -107 -1204
-135 -1520 -14 -151 -47 -529 -75 -840 -28 -311 -59 -664 -70 -785 -22 -241
-101 -1136 -125 -1415 -9 -96 -20 -220 -25 -275 -9 -95 -101 -1119 -210 -2351
-27 -309 -63 -714 -80 -900 -17 -186 -46 -517 -65 -734 -20 -217 -47 -521 -60
-675 -29 -323 -42 -388 -97 -505 -34 -70 -57 -101 -133 -177 -52 -53 -88 -96
-83 -101 5 -5 2 -14 -7 -22 -13 -11 -14 -10 -9 5 6 14 3 16 -16 10 -13 -4 -37
-16 -54 -27 -28 -17 -28 -19 -6 -13 14 4 21 4 17 -1 -4 -5 -22 -9 -40 -10 -18
-1 -52 -10 -77 -20 -67 -26 -230 -29 -470 -9 -115 10 -225 15 -244 13 -20 -2
-36 -1 -36 2 0 4 -62 12 -137 18 -76 7 -214 19 -307 27 -92 8 -172 13 -176 10
-4 -3 -21 -1 -36 4 -16 5 -65 12 -109 15 -44 3 -129 11 -190 16 -60 6 -162 15
-225 20 -63 5 -137 12 -165 15 -27 3 -180 16 -340 30 -159 14 -362 32 -450 40
-88 8 -167 14 -175 14 -23 0 -132 11 -160 16 -41 8 -871 79 -925 80 -27 0 -75
-3 -105 -6 l-55 -7 40 13 40 13 -57 1 c-31 1 -65 3 -75 6 -10 3 -4 -2 12 -10
l30 -16 -28 6 c-21 4 -28 2 -25 -7 3 -7 20 -16 39 -19 29 -6 30 -7 7 -8 -17
-1 -29 -8 -33 -20 -14 -46 -30 -43 -88 16 -32 31 -57 60 -57 64 0 11 -124 23
-163 15 -17 -3 -27 -2 -20 2 7 4 -56 13 -139 20 -113 9 -154 9 -165 1 -11 -10
-12 -8 -7 6 8 19 5 19 -171 0 -38 -4 -39 -4 -7 4 18 5 35 11 38 13 2 3 -64 10
-148 17 -84 7 -191 16 -238 22 -111 12 -248 15 -280 6 -23 -7 -23 -7 -2 2 25
12 28 18 10 18 -7 0 -59 3 -115 8 -73 5 -103 4 -103 -4 0 -6 -5 -11 -11 -11
-6 0 -9 6 -6 13 3 9 -30 15 -122 24 -350 32 -832 75 -956 85 -77 6 -143 14
-146 17 -4 3 -14 137 -23 296 -18 332 -20 358 -45 750 -11 160 -15 291 -11
293 50 18 100 104 100 170 0 72 -37 130 -113 177 -13 8 -19 52 -32 259 -21
348 -23 326 20 326 54 0 119 36 152 82 24 35 28 51 28 108 0 56 -4 73 -28 108
-35 54 -90 82 -162 82 l-55 0 0 53 0 52 53 23 c46 20 58 31 89 85 47 81 82
165 113 274 14 48 33 103 41 122 28 59 14 364 -30 646 -20 126 -36 235 -36
241 0 7 12 15 28 19 113 27 176 165 122 270 -11 22 -20 40 -20 41 0 0 46 4
103 7 382 24 665 164 805 398 161 272 137 709 -75 1354 -137 418 -341 806
-602 1145 -79 103 -80 105 -53 108 90 8 146 40 176 101 64 128 -28 281 -169
281 -51 0 -115 -30 -144 -66 l-23 -29 87 -7 c122 -9 166 -42 104 -77 -19 -11
-48 -12 -130 -6 l-106 7 -85 81 -86 82 8 65 c4 36 16 163 26 283 l18 217 82 0
c119 0 139 -6 169 -52 85 -128 295 -88 335 64 21 77 -7 152 -76 204 -33 25
-46 29 -105 29 -59 0 -73 -4 -110 -30 -60 -43 -59 -51 9 -59 61 -7 101 -33 87
-56 -16 -26 -60 -30 -238 -21 -100 6 -303 15 -452 21 -303 12 -335 16 -335 34
0 69 -300 144 -750 186 -118 11 -217 20 -222 20 -4 0 -8 78 -8 174 l0 174 143
-5 c224 -8 339 25 424 122 l44 50 266 -12 c146 -7 268 -15 271 -18 5 -5 -21
-446 -34 -576 l-6 -56 238 -6 c132 -4 249 -9 260 -11 20 -4 22 1 33 122 7 70
16 172 21 227 6 55 12 138 15 184 3 46 7 87 11 90 11 11 219 0 223 -12 2 -7
23 -31 45 -53 91 -92 223 -79 293 27 37 57 39 145 4 202 -62 100 -208 117
-298 34 -13 -11 -23 -24 -23 -28 0 -3 29 -9 64 -11 45 -3 71 -10 85 -22 28
-25 27 -31 -11 -49 -28 -13 -58 -14 -193 -7 -88 5 -236 11 -330 15 -93 3 -206
8 -250 10 -203 11 -497 25 -567 27 -57 1 -78 5 -78 15 0 8 -23 -3 -57 -26 -90
-61 -154 -83 -264 -89 -55 -2 -118 0 -150 7 -57 12 -190 74 -209 96 -9 11 -2
34 28 97 51 107 83 215 123 408 47 233 84 298 190 335 144 51 268 -31 339
-224 l24 -65 12 30 c7 16 18 53 24 82 l11 52 77 0 c103 -1 402 -17 408 -22 2
-3 -6 -143 -18 -312 -24 -346 -27 -326 53 -326 l46 0 2 91 c1 50 6 102 12 116
5 15 7 33 4 42 -3 9 -3 67 1 131 6 88 9 106 15 76 3 -21 3 -55 -2 -75 -12 -49
-11 -143 1 -116 13 31 11 12 -5 -52 -8 -31 -15 -90 -15 -131 l0 -74 65 4 c36
2 65 0 65 -4 0 -4 5 -8 12 -8 6 0 1 11 -12 25 l-23 25 24 27 c66 72 65 72 85
46 11 -15 9 -21 -7 -39 -13 -14 -17 -24 -10 -29 6 -3 11 -2 11 2 0 5 9 14 20
20 15 10 22 10 35 -3 15 -15 14 -18 -6 -40 -29 -31 -16 -44 15 -15 l24 22 20
-25 c19 -26 52 -35 52 -16 0 5 6 7 14 4 9 -3 15 5 20 27 11 56 7 59 -27 23
l-33 -36 -67 68 -68 68 45 45 c43 43 47 45 63 28 16 -16 16 -18 -7 -42 -26
-28 -8 -36 22 -9 14 14 20 14 33 4 19 -16 19 -25 -1 -45 -20 -20 -11 -33 11
-15 24 20 18 52 -20 94 -19 22 -35 43 -35 48 0 5 18 26 40 47 22 21 40 43 40
50 0 7 5 9 10 6 6 -3 10 1 10 9 0 9 5 16 11 16 8 0 10 17 7 50 -3 27 -1 47 4
44 4 -3 8 22 8 55 l0 61 -82 0 c-45 0 -79 3 -76 6 4 3 91 6 195 6 172 0 189
-2 198 -19 25 -45 85 -91 131 -101 93 -20 177 21 215 103 82 178 -129 350
-284 231 -63 -48 -60 -56 25 -56 55 0 81 -5 106 -20 38 -23 40 -33 8 -53 -21
-14 -81 -13 -647 13 -343 16 -655 30 -693 31 -115 4 -111 1 -111 72 0 56 4 68
36 112 83 116 120 227 127 376 l4 115 137 -3 c75 -3 141 -6 147 -8 7 -2 13
-54 17 -134 4 -72 12 -177 18 -233 6 -57 9 -131 6 -164 l-6 -61 46 -7 c75 -10
73 -12 75 52 l1 57 6 -49 6 -49 45 -4 c161 -11 334 -17 343 -11 6 4 14 3 17
-2 3 -5 5 24 4 63 l-1 72 6 -60 6 -60 7 90 c5 50 15 167 23 260 8 94 15 178
15 188 0 15 12 17 110 17 l110 0 20 -40 c61 -120 238 -132 318 -20 115 158
-55 363 -233 281 -22 -10 -48 -27 -58 -38 -18 -20 -17 -21 90 -28 108 -7 153
-21 153 -49 0 -38 -43 -39 -542 -17 -266 12 -561 26 -657 31 -95 6 -190 10
-211 10 -34 0 -41 5 -61 38 -44 73 -101 141 -154 182 l-53 41 24 67 c57 163
14 359 -113 516 -120 149 -317 216 -545 188 -51 -6 -103 -14 -114 -18 -19 -5
-27 4 -58 63 -43 81 -116 159 -186 197 -86 47 -216 66 -317 46z m2107 -1440
c21 -7 20 -8 -12 -7 -21 1 -38 5 -38 10 0 9 17 8 50 -3z m108 -7 c-10 -2 -26
-2 -35 0 -10 3 -2 5 17 5 19 0 27 -2 18 -5z m231 -25 c-1 -19 -2 -19 -6 -5 -3
11 -11 16 -19 13 -8 -3 -14 -1 -14 4 0 6 9 10 20 10 14 0 20 -6 19 -22z m18
-10 c-3 -7 -5 -2 -5 12 0 14 2 19 5 13 2 -7 2 -19 0 -25z m-426 -70 c0 -44 2
-58 9 -48 11 17 13 9 4 -15 -5 -13 -8 -14 -15 -3 -6 8 -9 -3 -9 -31 0 -24 -2
-42 -5 -39 -3 3 -2 51 1 107 8 111 17 129 15 29z m46 30 c-3 -7 -5 -2 -5 12 0
14 2 19 5 13 2 -7 2 -19 0 -25z m351 -28 c0 -9 -3 -7 -8 5 -5 11 -8 29 -8 40
0 16 2 15 8 -5 4 -14 8 -32 8 -40z m-371 18 c-3 -7 -5 -2 -5 12 0 14 2 19 5
13 2 -7 2 -19 0 -25z m390 -70 c-3 -8 -6 -5 -6 6 -1 11 2 17 5 13 3 -3 4 -12
1 -19z m-30 -170 c-2 -18 -4 -4 -4 32 0 36 2 50 4 33 2 -18 2 -48 0 -65z
m-350 60 c-3 -8 -6 -5 -6 6 -1 11 2 17 5 13 3 -3 4 -12 1 -19z m-53 -72 c-4
-37 -9 -64 -12 -62 -2 3 -1 35 3 71 4 37 9 65 11 62 3 -2 2 -34 -2 -71z m423
22 c-3 -7 -5 -2 -5 12 0 14 2 19 5 13 2 -7 2 -19 0 -25z m-10 -80 c-3 -8 -6
-5 -6 6 -1 11 2 17 5 13 3 -3 4 -12 1 -19z m8508 -78 c3 -5 1 -10 -4 -10 -6 0
-11 5 -11 10 0 6 2 10 4 10 3 0 8 -4 11 -10z m125 -91 c25 -22 38 -39 30 -36
-8 2 -24 -3 -34 -12 -18 -15 -18 -15 -7 7 17 33 0 50 -47 46 -35 -2 -36 -2
-13 10 l23 13 -28 22 -29 22 30 -15 c17 -9 50 -34 75 -57z m70 -75 c0 -8 4
-12 10 -9 6 4 7 -1 3 -11 -4 -11 -3 -15 5 -10 6 3 22 -8 35 -26 35 -46 107
-180 106 -198 0 -8 -6 0 -14 18 -15 35 -30 44 -22 12 3 -11 2 -18 -3 -15 -4 3
-10 14 -13 25 -3 13 -1 18 6 13 7 -4 8 0 4 11 -4 10 -7 22 -7 27 0 6 -4 8 -9
4 -5 -3 -13 0 -17 6 -5 8 -3 9 6 4 8 -5 11 -3 8 6 -3 8 -11 13 -18 11 -6 -1
-10 3 -7 10 6 18 -12 50 -23 43 -6 -3 -7 0 -4 8 3 8 -2 20 -11 27 -13 11 -15
10 -13 -6 2 -11 -1 -20 -7 -21 -5 -1 -9 6 -8 15 1 9 -4 25 -10 37 -14 26 -18
47 -6 39 5 -3 9 -12 9 -20z m-90 -126 c0 -5 -7 -3 -15 6 -8 8 -15 18 -15 22 0
3 7 1 15 -6 8 -7 15 -17 15 -22z m-9032 5 c-17 -4 -22 -17 -31 -73 -3 -14 -5
-4 -6 21 -1 51 3 59 33 58 17 -1 18 -2 4 -6z m165 0 c-18 -2 -48 -2 -65 0 -18
2 -4 4 32 4 36 0 50 -2 33 -4z m8838 -20 c13 -16 12 -17 -3 -4 -17 13 -22 21
-14 21 2 0 10 -8 17 -17z m-8911 -13 c-34 -11 -60 -11 -35 0 11 5 29 8 40 8
16 0 15 -2 -5 -8z m188 3 c-10 -2 -26 -2 -35 0 -10 3 -2 5 17 5 19 0 27 -2 18
-5z m-301 -115 c-3 -8 -6 -5 -6 6 -1 11 2 17 5 13 3 -3 4 -12 1 -19z m370 0
c-3 -8 -6 -5 -6 6 -1 11 2 17 5 13 3 -3 4 -12 1 -19z m8946 -65 c-4 -11 -3
-14 5 -9 7 4 12 1 12 -8 0 -24 -15 -19 -28 10 -8 16 -8 23 -2 19 7 -4 9 3 5
22 -5 25 -4 26 4 5 6 -12 7 -30 4 -39z m-9306 15 c-3 -8 -6 -5 -6 6 -1 11 2
17 5 13 3 -3 4 -12 1 -19z m350 0 c-3 -8 -6 -5 -6 6 -1 11 2 17 5 13 3 -3 4
-12 1 -19z m20 0 c-3 -8 -6 -5 -6 6 -1 11 2 17 5 13 3 -3 4 -12 1 -19z m8740
-10 c-3 -8 -6 -5 -6 6 -1 11 2 17 5 13 3 -3 4 -12 1 -19z m209 -83 c-9 -9 -16
-13 -16 -8 0 12 22 34 28 28 2 -2 -3 -11 -12 -20z m21 -62 c-3 -10 -5 -2 -5
17 0 19 2 27 5 18 2 -10 2 -26 0 -35z m-27 2 c10 24 0 -80 -11 -115 -4 -15 -6
2 -3 40 3 49 2 60 -6 45 -9 -18 -10 -17 -5 5 2 14 5 32 6 40 1 8 4 4 7 -10 4
-23 5 -24 12 -5z m-9323 -117 c-2 -13 -4 -3 -4 22 0 25 2 35 4 23 2 -13 2 -33
0 -45z m9354 -33 c-4 -32 -9 -44 -13 -33 -6 15 9 95 16 86 2 -1 0 -25 -3 -53z
m-194 -12 c-3 -10 -5 -4 -5 12 0 17 2 24 5 18 2 -7 2 -21 0 -30z m-9180 -15
c-3 -7 -5 -2 -5 12 0 14 2 19 5 13 2 -7 2 -19 0 -25z m9341 -103 c0 -16 -2
-15 -8 5 -4 14 -8 36 -8 50 0 22 1 22 8 -5 4 -16 8 -39 8 -50z m22 33 c0 -25
-3 -29 -10 -18 -13 20 -13 50 0 50 6 0 10 -15 10 -32z m-13 -105 c-3 -10 -5
-2 -5 17 0 19 2 27 5 18 2 -10 2 -26 0 -35z m-200 -55 c-3 -8 -6 -5 -6 6 -1
11 2 17 5 13 3 -3 4 -12 1 -19z m190 -25 c-3 -10 -5 -2 -5 17 0 19 2 27 5 18
2 -10 2 -26 0 -35z m-9282 -12 c22 -5 30 -9 18 -10 -22 -1 -34 -21 -13 -21 18
0 11 -32 -12 -51 -22 -20 -35 -16 -65 21 -11 13 -15 13 -28 -4 -13 -17 -15
-17 -15 -3 0 9 8 21 18 26 9 6 11 11 5 11 -7 0 -13 9 -13 20 0 22 32 26 105
11z m253 -18 c-21 -2 -57 -2 -80 0 -24 2 -7 4 37 4 44 0 63 -2 43 -4z m9019
-50 c-3 -10 -5 -2 -5 17 0 19 2 27 5 18 2 -10 2 -26 0 -35z m-10 -70 c-3 -10
-5 -2 -5 17 0 19 2 27 5 18 2 -10 2 -26 0 -35z m-9356 -7 c13 -14 11 -23 -6
-30 -12 -4 -15 3 -14 37 1 23 3 33 6 22 3 -11 9 -24 14 -29z m9172 -45 c4 -29
2 -40 -4 -30 -8 13 -14 88 -5 78 2 -2 6 -24 9 -48z m168 -62 c-5 -16 -8 -37
-5 -47 2 -9 -1 -7 -8 6 -9 18 -9 28 0 43 7 10 13 31 13 46 2 25 2 25 6 5 3
-13 0 -37 -6 -53z m-9361 -51 c0 -51 -4 -88 -8 -82 -8 9 -4 174 4 174 2 0 4
-41 4 -92z m400 82 c0 -5 -2 -10 -4 -10 -3 0 -8 5 -11 10 -3 6 -1 10 4 10 6 0
11 -4 11 -10z m8777 -57 c-3 -10 -5 -2 -5 17 0 19 2 27 5 18 2 -10 2 -26 0
-35z m-8800 -5 c-3 -7 -5 -2 -5 12 0 14 2 19 5 13 2 -7 2 -19 0 -25z m-30 0
c-3 -8 -6 -5 -6 6 -1 11 2 17 5 13 3 -3 4 -12 1 -19z m8980 -10 c-3 -7 -5 -2
-5 12 0 14 2 19 5 13 2 -7 2 -19 0 -25z m-19 -24 c-3 -14 -5 -12 -10 9 -3 19
-2 25 4 19 6 -6 8 -18 6 -28z m39 -56 c-2 -13 -4 -5 -4 17 -1 22 1 32 4 23 2
-10 2 -28 0 -40z m-160 10 c-3 -7 -5 -2 -5 12 0 14 2 19 5 13 2 -7 2 -19 0
-25z m121 -23 c-3 -3 -9 2 -12 12 -6 14 -5 15 5 6 7 -7 10 -15 7 -18z m-8931
-62 c-2 -16 -4 -5 -4 22 0 28 2 40 4 28 2 -13 2 -35 0 -50z m8941 -28 c0 -16
-2 -15 -8 5 -4 14 -8 36 -8 50 0 22 1 22 8 -5 4 -16 8 -39 8 -50z m21 20 c1
-17 -1 -17 -9 -5 -5 8 -9 26 -9 40 0 23 1 23 9 5 5 -11 9 -29 9 -40z m-182 -7
c-3 -7 -5 -2 -5 12 0 14 2 19 5 13 2 -7 2 -19 0 -25z m50 -60 c-3 -8 -6 -5 -6
6 -1 11 2 17 5 13 3 -3 4 -12 1 -19z m120 -30 c-3 -7 -5 -2 -5 12 0 14 2 19 5
13 2 -7 2 -19 0 -25z m-10 -75 c-3 -10 -5 -2 -5 17 0 19 2 27 5 18 2 -10 2
-26 0 -35z m-26 -203 c-15 -104 -19 -116 -20 -70 -1 40 -4 51 -11 40 -9 -13
-10 -13 -10 0 0 8 -13 26 -29 39 l-29 24 21 23 c24 28 33 29 54 9 21 -21 28
-12 11 14 -10 17 -10 24 0 39 7 9 16 26 20 37 15 43 12 -30 -7 -155z m-174 68
c-3 -8 -6 -5 -6 6 -1 11 2 17 5 13 3 -3 4 -12 1 -19z m-9281 -95 c-13 -156
-17 -185 -29 -180 -7 2 -50 17 -97 32 -47 15 -89 31 -93 35 -5 4 8 30 29 56
20 27 45 68 55 92 l18 42 61 0 62 0 -6 -77z m9271 20 c-3 -10 -5 -4 -5 12 0
17 2 24 5 18 2 -7 2 -21 0 -30z m127 -15 c7 -13 16 -41 19 -63 3 -22 3 -34 0
-27 -7 18 -23 15 -23 -5 0 -9 -2 -14 -5 -11 -3 3 -21 -10 -41 -30 l-35 -35 21
-22 c19 -20 20 -26 8 -45 -9 -14 -20 -20 -35 -17 -17 3 -23 -1 -23 -14 0 -20
-47 -79 -62 -79 -5 0 -6 17 -2 38 6 37 30 66 45 56 13 -8 11 2 -10 38 -16 29
-18 42 -10 103 5 38 13 71 19 73 5 2 10 11 10 20 0 8 3 13 6 9 3 -3 15 3 27
14 29 26 73 25 91 -3z m-9277 -20 c-3 -7 -5 -2 -5 12 0 14 2 19 5 13 2 -7 2
-19 0 -25z m9310 -140 c-2 -13 -4 -5 -4 17 -1 22 1 32 4 23 2 -10 2 -28 0 -40z
m-40 -30 c-3 -7 -5 -2 -5 12 0 14 2 19 5 13 2 -7 2 -19 0 -25z m32 -42 c2 -45
-6 -27 -12 29 -4 34 -3 42 3 25 4 -14 8 -38 9 -54z m-32 -28 c-3 -8 -6 -5 -6
6 -1 11 2 17 5 13 3 -3 4 -12 1 -19z m17 -53 c5 -22 4 -26 -4 -15 -5 8 -10 24
-10 34 0 26 6 18 14 -19z m-15 -166 c-7 -57 -16 -108 -19 -112 -4 -5 -6 2 -4
15 1 13 8 65 15 116 7 51 14 91 16 88 2 -2 -1 -51 -8 -107z m-22 -166 c-3 -10
-5 -4 -5 12 0 17 2 24 5 18 2 -7 2 -21 0 -30z m-10 -66 c-4 -32 -4 -32 -5 5
-1 20 -6 40 -12 43 -5 3 -10 11 -10 18 0 6 7 1 16 -11 9 -13 14 -35 11 -55z
m-55 -9 c-6 -6 -7 0 -4 19 5 21 7 23 10 9 2 -10 0 -22 -6 -28z m-103 -13 c0
-5 -4 -3 -9 5 -5 8 -9 22 -9 30 0 16 17 -16 18 -35z m128 23 c-3 -8 -6 -5 -6
6 -1 11 2 17 5 13 3 -3 4 -12 1 -19z m-150 -75 c-3 -10 -5 -2 -5 17 0 19 2 27
5 18 2 -10 2 -26 0 -35z m170 -10 c-3 -10 -5 -4 -5 12 0 17 2 24 5 18 2 -7 2
-21 0 -30z m-40 5 c-3 -8 -6 -5 -6 6 -1 11 2 17 5 13 3 -3 4 -12 1 -19z m-100
-30 c-3 -8 -6 -5 -6 6 -1 11 2 17 5 13 3 -3 4 -12 1 -19z m132 -47 c1 -48 -5
-35 -12 24 -4 32 -3 43 3 30 5 -11 9 -35 9 -54z m-13021 -22 c4 -34 -15 -80
-83 -199 -123 -217 -257 -591 -333 -930 -61 -273 -102 -652 -102 -951 0 -98
-11 -150 -38 -182 -20 -22 -26 -15 -46 52 -29 97 -19 431 20 721 53 397 151
756 310 1138 35 84 64 155 64 158 0 21 78 161 105 190 28 29 40 35 67 32 27
-2 34 -8 36 -29z m12999 -6 c-3 -10 -5 -4 -5 12 0 17 2 24 5 18 2 -7 2 -21 0
-30z m11 -64 c-3 -20 -5 -19 -9 9 -3 20 -2 29 4 23 5 -5 7 -19 5 -32z m-171
-11 c-3 -8 -6 -5 -6 6 -1 11 2 17 5 13 3 -3 4 -12 1 -19z m20 -60 c-3 -7 -5
-2 -5 12 0 14 2 19 5 13 2 -7 2 -19 0 -25z m30 0 c-3 -7 -5 -2 -5 12 0 14 2
19 5 13 2 -7 2 -19 0 -25z m110 -20 c-3 -8 -6 -5 -6 6 -1 11 2 17 5 13 3 -3 4
-12 1 -19z m-13 -99 c-4 -41 -9 -68 -12 -61 -5 16 8 145 14 139 2 -2 1 -37 -2
-78z m-187 -121 c-3 -8 -6 -5 -6 6 -1 11 2 17 5 13 3 -3 4 -12 1 -19z m170
-10 c-3 -7 -5 -2 -5 12 0 14 2 19 5 13 2 -7 2 -19 0 -25z m-60 -30 c-3 -7 -5
-2 -5 12 0 14 2 19 5 13 2 -7 2 -19 0 -25z m52 -40 c0 -35 -2 -39 -9 -21 -8
19 -3 63 6 63 2 0 4 -19 3 -42z m-172 0 c-3 -7 -5 -2 -5 12 0 14 2 19 5 13 2
-7 2 -19 0 -25z m139 -4 c-4 -9 -9 -15 -11 -12 -3 3 -3 13 1 22 4 9 9 15 11
12 3 -3 3 -13 -1 -22z m21 -81 c-3 -10 -5 -4 -5 12 0 17 2 24 5 18 2 -7 2 -21
0 -30z m-170 -10 c-3 -10 -5 -4 -5 12 0 17 2 24 5 18 2 -7 2 -21 0 -30z m130
-10 c-3 -10 -5 -2 -5 17 0 19 2 27 5 18 2 -10 2 -26 0 -35z m30 -65 c-2 -13
-4 -3 -4 22 0 25 2 35 4 23 2 -13 2 -33 0 -45z m-40 10 c-3 -8 -6 -5 -6 6 -1
11 2 17 5 13 3 -3 4 -12 1 -19z m32 -88 c1 -18 -2 -21 -8 -11 -5 7 -11 9 -13
5 -3 -5 -3 -3 -1 4 1 8 4 35 4 60 l1 47 9 -40 c4 -22 8 -51 8 -65z m-162 58
c-3 -8 -6 -5 -6 6 -1 11 2 17 5 13 3 -3 4 -12 1 -19z m30 0 c-3 -8 -6 -5 -6 6
-1 11 2 17 5 13 3 -3 4 -12 1 -19z m0 -90 c-3 -7 -5 -2 -5 12 0 14 2 19 5 13
2 -7 2 -19 0 -25z m104 -173 c-10 -77 -19 -124 -20 -105 0 19 6 85 14 145 8
61 15 117 16 125 1 8 3 6 5 -5 2 -11 -5 -83 -15 -160z m-13539 -88 c31 -24 31
-61 0 -173 -79 -285 -125 -578 -142 -899 -7 -137 -13 -184 -28 -218 -36 -82
-54 -74 -73 35 -37 208 98 1110 186 1245 17 26 32 28 57 10z m13465 -49 c-3
-8 -6 -5 -6 6 -1 11 2 17 5 13 3 -3 4 -12 1 -19z m30 0 c-3 -8 -6 -5 -6 6 -1
11 2 17 5 13 3 -3 4 -12 1 -19z m21 -45 c0 -34 -2 -35 -11 -16 -5 12 -7 29 -4
37 10 26 15 18 15 -21z m-34 -17 c-3 -15 -8 -25 -11 -23 -2 3 -1 17 3 31 3 15
8 25 11 23 2 -3 1 -17 -3 -31z m-130 -66 c4 -25 3 -31 -4 -20 -5 8 -10 26 -10
39 0 32 6 24 14 -19z m150 -42 c-4 -40 -9 -67 -12 -60 -5 17 8 145 15 139 2
-3 1 -38 -3 -79z m-37 10 c-3 -8 -6 -5 -6 6 -1 11 2 17 5 13 3 -3 4 -12 1 -19z
m-130 -45 c-3 -10 -5 -2 -5 17 0 19 2 27 5 18 2 -10 2 -26 0 -35z m30 -45 c-3
-7 -5 -2 -5 12 0 14 2 19 5 13 2 -7 2 -19 0 -25z m110 10 c-3 -8 -6 -5 -6 6
-1 11 2 17 5 13 3 -3 4 -12 1 -19z m-130 -70 c-3 -7 -5 -2 -5 12 0 14 2 19 5
13 2 -7 2 -19 0 -25z m140 0 c-3 -7 -5 -2 -5 12 0 14 2 19 5 13 2 -7 2 -19 0
-25z m-14 -79 c-6 -6 -7 3 -4 23 4 28 6 29 9 9 2 -13 0 -27 -5 -32z m-156 19
c-3 -8 -6 -5 -6 6 -1 11 2 17 5 13 3 -3 4 -12 1 -19z m150 -85 c-3 -10 -5 -2
-5 17 0 19 2 27 5 18 2 -10 2 -26 0 -35z m-7927 9 c0 -31 -29 -62 -155 -160
-256 -202 -484 -357 -767 -522 -153 -90 -185 -101 -223 -76 -52 34 -18 94 65
116 163 44 491 236 743 434 71 56 165 129 209 164 82 63 128 79 128 44z m7911
-127 c-6 -43 -9 -50 -10 -25 -1 41 12 122 16 100 2 -8 -1 -42 -6 -75z m-64
-67 c-3 -8 -6 -5 -6 6 -1 11 2 17 5 13 3 -3 4 -12 1 -19z m34 -183 c-11 -77
-19 -122 -20 -100 0 22 6 81 13 130 8 50 12 94 9 98 -3 5 -1 20 3 35 l8 27 3
-25 c2 -14 -6 -88 -16 -165z m-144 133 c-3 -7 -5 -2 -5 12 0 14 2 19 5 13 2
-7 2 -19 0 -25z m124 -19 c-5 -13 -10 -19 -10 -12 -1 15 10 45 15 40 3 -2 0
-15 -5 -28z m-134 -61 c-3 -7 -5 -2 -5 12 0 14 2 19 5 13 2 -7 2 -19 0 -25z
m120 -30 c-3 -8 -6 -5 -6 6 -1 11 2 17 5 13 3 -3 4 -12 1 -19z m-10417 -43
c23 -8 83 -42 134 -76 161 -107 436 -228 578 -254 44 -8 49 -18 37 -76 -13
-60 -66 -363 -74 -421 -7 -45 -9 -48 -44 -53 -146 -21 -337 -65 -516 -116
-182 -52 -222 -61 -300 -62 -71 -1 -97 2 -125 17 -83 45 -80 72 15 144 39 29
93 64 120 78 80 42 86 55 15 33 -83 -25 -263 -69 -310 -75 -76 -10 -124 22
-100 66 20 37 235 155 374 204 52 18 -6 13 -150 -15 -313 -60 -392 -46 -267
45 70 52 178 104 268 131 96 28 95 28 -117 14 -152 -11 -169 -11 -192 5 -34
22 -33 48 4 89 53 61 214 90 502 91 87 1 158 3 158 6 0 3 -19 16 -43 29 -50
29 -182 125 -191 140 -12 20 13 49 51 59 57 15 125 14 173 -3z m10287 -7 c-3
-8 -6 -5 -6 6 -1 11 2 17 5 13 3 -3 4 -12 1 -19z m91 -70 c1 -45 3 -48 29 -52
12 -2 19 -13 21 -35 3 -30 2 -31 -22 -25 -22 5 -26 3 -26 -14 0 -12 5 -24 10
-27 15 -9 12 -19 -10 -45 -21 -25 -31 -21 -73 25 l-18 20 3 -20 c3 -25 -22
-65 -41 -65 -11 0 -12 10 -7 48 4 26 9 65 11 87 4 45 23 102 24 72 1 -17 23
-47 35 -47 3 0 6 21 6 47 0 34 6 53 22 70 26 28 35 18 36 -39z m-71 -40 c-3
-8 -6 -5 -6 6 -1 11 2 17 5 13 3 -3 4 -12 1 -19z m110 -130 c-3 -7 -5 -2 -5
12 0 14 2 19 5 13 2 -7 2 -19 0 -25z m-95 -88 c-22 -24 -52 -21 -52 4 0 8 10
22 22 30 19 14 24 14 36 2 12 -12 12 -17 -6 -36z m76 -63 c-7 -65 -16 -103
-21 -98 -6 6 -5 28 1 58 6 26 14 72 18 101 3 29 8 52 10 49 2 -2 -2 -52 -8
-110z m-48 -104 c-11 -17 -11 -17 -6 0 3 10 7 28 7 40 2 22 2 22 6 0 2 -12 -1
-30 -7 -40z m30 -43 c0 -16 -2 -30 -4 -30 -2 0 -6 14 -8 30 -3 17 -1 30 4 30
4 0 8 -13 8 -30z m-19 -140 c-4 -41 -9 -59 -10 -39 -1 42 11 139 16 124 1 -6
-1 -44 -6 -85z m-154 -37 c-3 -10 -5 -4 -5 12 0 17 2 24 5 18 2 -7 2 -21 0
-30z m131 -38 c0 -16 -2 -15 -8 5 -11 34 -11 60 0 35 5 -11 8 -29 8 -40z
m-101 3 c-3 -8 -6 -5 -6 6 -1 11 2 17 5 13 3 -3 4 -12 1 -19z m110 -65 c-3
-10 -5 -4 -5 12 0 17 2 24 5 18 2 -7 2 -21 0 -30z m-24 -176 c-10 -75 -21
-137 -26 -137 -5 0 -6 14 -2 33 6 30 34 222 35 241 0 5 2 7 5 5 2 -3 -3 -66
-12 -142z m-86 31 c-3 -8 -6 -5 -6 6 -1 11 2 17 5 13 3 -3 4 -12 1 -19z m-80
-110 c-3 -8 -6 -5 -6 6 -1 11 2 17 5 13 3 -3 4 -12 1 -19z m125 -18 c-2 -22
-7 -42 -11 -44 -3 -2 -4 16 -2 40 1 24 6 44 10 44 3 0 5 -18 3 -40z m1 -223
c-10 -81 -20 -147 -24 -147 -3 0 -2 28 3 63 5 34 7 72 5 84 -2 12 0 24 4 25 5
2 10 33 11 70 2 37 6 64 11 59 4 -4 -1 -73 -10 -154z m-8380 105 c23 -20 22
-25 -13 -45 -33 -20 -34 -19 -44 39 -5 29 -3 31 17 27 12 -3 30 -13 40 -21z
m8244 6 c-3 -8 -6 -5 -6 6 -1 11 2 17 5 13 3 -3 4 -12 1 -19z m-10 -80 c-3 -7
-5 -2 -5 12 0 14 2 19 5 13 2 -7 2 -19 0 -25z m-10 -105 c-3 -10 -5 -2 -5 17
0 19 2 27 5 18 2 -10 2 -26 0 -35z m-10 -75 c-3 -8 -6 -5 -6 6 -1 11 2 17 5
13 3 -3 4 -12 1 -19z m-12015 -53 c-2 -15 -10 -46 -18 -68 -56 -158 -98 -440
-97 -657 0 -191 10 -232 65 -254 42 -17 567 -101 948 -150 286 -37 778 -79
1043 -88 60 -2 71 -6 59 -25 -16 -26 -76 -35 -277 -40 -424 -11 -1267 60
-1546 132 -130 33 -255 79 -303 113 -68 47 -81 91 -80 267 1 165 10 221 90
539 42 166 61 221 87 254 16 20 32 8 29 -23z m12047 -10 c5 2 6 -8 3 -23 l-6
-27 -7 25 c-4 14 -7 36 -7 50 1 23 1 23 5 -3 2 -15 8 -25 12 -22z m-42 3 c-3
-8 -6 -5 -6 6 -1 11 2 17 5 13 3 -3 4 -12 1 -19z m140 -45 c-2 -16 -4 -5 -4
22 0 28 2 40 4 28 2 -13 2 -35 0 -50z m-13 -133 c-4 -54 -10 -78 -17 -71 -6 6
-6 25 2 55 6 25 11 59 11 77 0 18 3 30 6 27 3 -4 2 -43 -2 -88z m-40 -74 c-3
-15 -8 -25 -11 -23 -2 3 -1 17 3 31 3 15 8 25 11 23 2 -3 1 -17 -3 -31z m11
-161 c-20 -150 -23 -159 -21 -63 0 44 4 74 10 71 5 -4 7 11 3 35 -3 26 -1 42
5 42 6 0 7 11 3 28 -4 19 -3 24 4 17 8 -8 7 -46 -4 -130z m-150 -80 c-4 -31
-9 -54 -12 -51 -3 2 -1 30 2 61 4 31 9 54 12 51 3 -2 1 -30 -2 -61z m22 -17
c-3 -8 -6 -5 -6 6 -1 11 2 17 5 13 3 -3 4 -12 1 -19z m1 -78 c0 -9 -3 -7 -8 5
-5 11 -8 29 -8 40 0 16 2 15 8 -5 4 -14 8 -32 8 -40z m104 -7 c-5 -59 -10 -63
-11 -10 -1 26 3 47 7 47 4 0 6 -17 4 -37z m-125 -75 c-3 -8 -6 -5 -6 6 -1 11
2 17 5 13 3 -3 4 -12 1 -19z m110 -25 c-3 -10 -5 -4 -5 12 0 17 2 24 5 18 2
-7 2 -21 0 -30z m-140 -25 c-3 -8 -6 -5 -6 6 -1 11 2 17 5 13 3 -3 4 -12 1
-19z m128 -93 c-4 -42 -10 -74 -12 -71 -3 2 -2 39 2 81 4 42 10 74 12 71 3 -2
2 -39 -2 -81z m-28 -32 c-3 -10 -5 -4 -5 12 0 17 2 24 5 18 2 -7 2 -21 0 -30z
m-20 -40 c-3 -10 -5 -2 -5 17 0 19 2 27 5 18 2 -10 2 -26 0 -35z m-110 -35
c-3 -7 -5 -2 -5 12 0 14 2 19 5 13 2 -7 2 -19 0 -25z m143 -11 c0 -10 -4 -15
-10 -12 -5 3 -10 18 -10 33 0 21 2 24 10 12 5 -8 10 -23 10 -33z m-16 -124
c-10 -100 -21 -130 -20 -56 1 35 4 63 9 63 4 0 7 14 7 30 0 17 3 30 6 30 3 0
2 -30 -2 -67z m-137 15 c-3 -8 -6 -5 -6 6 -1 11 2 17 5 13 3 -3 4 -12 1 -19z
m2 -103 c0 -5 -4 -3 -9 5 -5 8 -9 22 -9 30 0 16 17 -16 18 -35z m-22 -82 c-3
-10 -5 -2 -5 17 0 19 2 27 5 18 2 -10 2 -26 0 -35z m128 -58 c-4 -37 -9 -65
-11 -62 -3 2 -2 34 2 71 4 37 9 64 12 62 2 -3 1 -35 -3 -71z m-103 -74 c8 11
9 10 4 -4 -3 -10 -6 -26 -7 -35 -2 -26 -17 29 -17 58 1 21 2 20 5 -4 4 -23 7
-26 15 -15z m82 -100 c-3 -40 -9 -70 -11 -67 -3 3 -2 37 2 76 4 39 9 69 12 67
2 -3 1 -37 -3 -76z m-107 17 c-3 -8 -6 -5 -6 6 -1 11 2 17 5 13 3 -3 4 -12 1
-19z m80 -45 c-3 -10 -5 -4 -5 12 0 17 2 24 5 18 2 -7 2 -21 0 -30z m-20 -55
c-2 -13 -4 -5 -4 17 -1 22 1 32 4 23 2 -10 2 -28 0 -40z m-20 -20 c-3 -7 -5
-2 -5 12 0 14 2 19 5 13 2 -7 2 -19 0 -25z m-8255 -15 c25 -22 23 -28 -16 -47
-48 -23 -66 -13 -66 36 0 40 0 40 32 34 17 -3 40 -14 50 -23z m8308 6 c0 -11
-4 -17 -10 -14 -5 3 -10 13 -10 21 0 8 5 14 10 14 6 0 10 -9 10 -21z m-19
-146 c-7 -48 -17 -128 -22 -178 -6 -49 -12 -91 -15 -94 -8 -8 7 173 18 207 11
38 1 103 -13 81 -6 -9 -7 -4 -3 16 9 38 14 44 14 17 0 -12 4 -22 9 -22 7 0 8
29 2 73 -1 5 -7 5 -13 1 -8 -5 -7 -1 2 10 26 33 34 -12 21 -111z m-92 28 c2
-1 -4 -10 -14 -21 -22 -24 -50 -27 -41 -4 3 9 6 20 6 25 0 5 10 7 23 5 12 -3
24 -5 26 -5z m-58 -183 c-3 -21 -6 -26 -9 -15 -3 17 3 47 11 47 2 0 1 -15 -2
-32z m28 -78 c0 -9 -4 -8 -9 5 -5 11 -9 27 -9 35 0 9 4 8 9 -5 5 -11 9 -27 9
-35z m-22 -82 c-3 -8 -6 -5 -6 6 -1 11 2 17 5 13 3 -3 4 -12 1 -19z m100 -35
c-3 -10 -5 -4 -5 12 0 17 2 24 5 18 2 -7 2 -21 0 -30z m-130 -30 c-3 -10 -5
-4 -5 12 0 17 2 24 5 18 2 -7 2 -21 0 -30z m112 -24 c0 19 4 32 7 28 4 -3 3
-36 -1 -72 -4 -37 -8 -65 -10 -63 -1 2 -5 35 -8 73 -3 45 -3 58 2 35 l8 -35 2
34z m-21 -79 c0 -22 -1 -22 -8 5 -4 17 -8 24 -9 17 -1 -10 -5 -10 -17 2 -8 9
-12 21 -8 28 5 8 10 6 15 -8 7 -17 8 -16 9 6 l2 25 8 -25 c4 -14 8 -36 8 -50z
m-121 -72 c-3 -8 -6 -5 -6 6 -1 11 2 17 5 13 3 -3 4 -12 1 -19z m100 -40 c-2
-13 -4 -3 -4 22 0 25 2 35 4 23 2 -13 2 -33 0 -45z m20 -75 c-25 -171 -26
-177 -21 -83 2 47 9 103 15 124 6 22 8 53 5 70 -5 23 -4 28 6 18 9 -9 8 -38
-5 -129z m-120 35 c-3 -8 -6 -5 -6 6 -1 11 2 17 5 13 3 -3 4 -12 1 -19z
m-9597 -224 c-13 -593 2 -1272 50 -2184 32 -634 97 -1336 136 -1471 3 -9 -3
-24 -12 -34 -27 -26 -39 -3 -68 130 -86 394 -130 859 -157 1665 -17 523 1
2079 25 2118 4 7 13 11 19 9 9 -3 11 -64 7 -233z m-2113 179 c-75 -350 -161
-905 -222 -1428 -9 -71 -25 -206 -36 -300 -11 -93 -31 -278 -44 -410 -14 -132
-30 -278 -35 -325 -38 -341 -80 -968 -80 -1207 0 -100 -3 -188 -6 -197 -8 -21
-40 -20 -49 2 -14 33 -18 600 -6 806 17 285 60 735 91 951 5 39 19 140 30 225
47 357 146 985 216 1360 14 74 31 169 39 210 62 340 62 340 92 340 12 0 14 -7
10 -27z m11700 -5 c-3 -8 -6 -5 -6 6 -1 11 2 17 5 13 3 -3 4 -12 1 -19z m1
-103 c-3 -3 -9 2 -12 12 -6 14 -5 15 5 6 7 -7 10 -15 7 -18z m-21 -77 c-3 -7
-5 -2 -5 12 0 14 2 19 5 13 2 -7 2 -19 0 -25z m120 -25 c-3 -10 -5 -4 -5 12 0
17 2 24 5 18 2 -7 2 -21 0 -30z m-7 -63 c0 -11 -2 -20 -4 -20 -2 0 -6 9 -9 20
-3 11 -1 20 4 20 5 0 9 -9 9 -20z m-90 -55 c5 3 12 0 16 -6 4 -8 3 -9 -4 -5
-8 5 -12 -1 -13 -16 -1 -23 -1 -23 -9 2 -4 14 -8 36 -8 50 1 23 1 23 5 -3 2
-15 8 -25 13 -22z m44 -114 c-2 -2 -4 4 -5 15 0 18 -1 18 -10 -1 -8 -17 -9
-17 -4 5 2 14 5 41 6 60 1 27 3 23 9 -20 5 -30 7 -57 4 -59z m33 77 c-3 -7 -5
-2 -5 12 0 14 2 19 5 13 2 -7 2 -19 0 -25z m-7 -72 c0 -51 -6 -43 -14 19 -5
36 -4 46 3 35 6 -8 11 -33 11 -54z m-93 32 c-3 -8 -6 -5 -6 6 -1 11 2 17 5 13
3 -3 4 -12 1 -19z m78 -167 c-6 -31 -9 -33 -15 -16 -5 11 -8 29 -8 40 0 16 2
15 8 -5 7 -21 8 -18 10 20 2 27 4 36 7 21 3 -13 2 -40 -2 -60z m-18 -88 c-3
-10 -5 -4 -5 12 0 17 2 24 5 18 2 -7 2 -21 0 -30z m-16 -168 l-11 -40 5 40 c3
22 6 60 7 85 l2 45 3 -45 c2 -25 -1 -63 -6 -85z m-116 15 c-4 -23 -9 -39 -11
-37 -3 2 -2 23 2 46 4 23 9 40 11 37 3 -3 2 -23 -2 -46z m23 -100 c0 -9 -3 -7
-8 5 -5 11 -8 29 -8 40 0 16 2 15 8 -5 4 -14 8 -32 8 -40z m82 -6 c0 -14 -4
-23 -9 -20 -5 3 -7 15 -4 26 7 28 13 25 13 -6z m-13 -86 c-3 -7 -5 -2 -5 12 0
14 2 19 5 13 2 -7 2 -19 0 -25z m-9 -63 c0 -38 -1 -39 -8 -10 -4 17 -8 44 -8
60 -1 25 1 27 8 10 5 -11 8 -38 8 -60z m-111 8 c-3 -10 -5 -4 -5 12 0 17 2 24
5 18 2 -7 2 -21 0 -30z m93 -17 c0 -26 -6 -18 -14 19 -5 22 -4 26 4 15 5 -8
10 -24 10 -34z m-27 -45 c3 -14 1 -18 -9 -14 -15 6 -18 16 -7 26 9 10 10 9 16
-12z m34 -43 c-3 -7 -5 -2 -5 12 0 14 2 19 5 13 2 -7 2 -19 0 -25z m-12 -113
c-4 -22 -10 -62 -15 -90 l-7 -50 -2 63 c0 35 3 62 9 62 6 0 10 19 9 43 0 34
-2 38 -10 22 -8 -17 -9 -17 -4 5 2 14 5 32 6 40 0 8 5 -1 11 -20 5 -19 7 -53
3 -75z m-128 -87 c-3 -8 -6 -5 -6 6 -1 11 2 17 5 13 3 -3 4 -12 1 -19z m3
-103 c0 -5 -5 -3 -10 5 -5 8 -10 20 -10 25 0 6 5 3 10 -5 5 -8 10 -19 10 -25z
m97 -22 c-3 -10 -5 -4 -5 12 0 17 2 24 5 18 2 -7 2 -21 0 -30z m-120 -60 c-3
-10 -5 -2 -5 17 0 19 2 27 5 18 2 -10 2 -26 0 -35z m110 -20 c-3 -10 -5 -4 -5
12 0 17 2 24 5 18 2 -7 2 -21 0 -30z m-8 -63 c0 -10 -3 -8 -9 5 -12 27 -12 43
0 25 5 -8 9 -22 9 -30z m-92 -2 c-3 -8 -6 -5 -6 6 -1 11 2 17 5 13 3 -3 4 -12
1 -19z m48 -55 c-9 -76 -17 -61 -8 18 3 35 8 58 11 51 2 -7 1 -38 -3 -69z
m-68 35 c-3 -7 -5 -2 -5 12 0 14 2 19 5 13 2 -7 2 -19 0 -25z m96 -33 c4 -34
3 -42 -3 -25 -8 25 -13 87 -6 79 2 -2 6 -26 9 -54z m-16 -37 c-3 -8 -6 -5 -6
6 -1 11 2 17 5 13 3 -3 4 -12 1 -19z m10 -80 c-3 -7 -5 -2 -5 12 0 14 2 19 5
13 2 -7 2 -19 0 -25z m-132 12 c3 -5 1 -10 -4 -10 -6 0 -11 5 -11 10 0 6 2 10
4 10 3 0 8 -4 11 -10z m-6608 -6 c-3 -3 -12 -4 -19 -1 -8 3 -5 6 6 6 11 1 17
-2 13 -5z m143 -14 c-19 -13 -30 -13 -30 0 0 6 10 10 23 10 18 0 19 -2 7 -10z
m-167 -7 c-7 -2 -19 -2 -25 0 -7 3 -2 5 12 5 14 0 19 -2 13 -5z m257 -3 c-14
-4 -19 -8 -11 -9 8 -1 12 -4 8 -7 -9 -9 -28 6 -22 17 4 5 16 9 28 8 20 -1 20
-2 -3 -9z m6372 -19 c7 10 9 11 6 1 -6 -21 -23 -19 -24 3 -1 18 -1 18 3 1 4
-16 7 -17 15 -5z m125 -49 c-3 -10 -5 -3 -6 13 -1 21 -4 26 -10 16 -6 -9 -11
-10 -15 -2 -4 6 -2 11 3 11 6 0 11 10 12 23 1 16 3 14 10 -11 6 -19 8 -41 6
-50z m-6655 61 c-12 -2 -20 -8 -18 -12 3 -4 -9 -5 -27 -2 l-32 5 30 7 c17 4
39 7 50 6 16 0 16 -1 -3 -4z m301 0 c-7 -2 -19 -2 -25 0 -7 3 -2 5 12 5 14 0
19 -2 13 -5z m110 -10 c-7 -2 -19 -2 -25 0 -7 3 -2 5 12 5 14 0 19 -2 13 -5z
m6077 -54 c-7 -11 -14 -18 -17 -15 -3 3 0 12 7 21 18 21 23 19 10 -6z m-5511
7 c-2 -2 -17 -6 -34 -10 -22 -5 -26 -4 -15 4 14 9 59 15 49 6z m136 -16 c13
-5 14 -9 5 -9 -8 0 -24 4 -35 9 -13 5 -14 9 -5 9 8 0 24 -4 35 -9z m95 -4 c0
-2 -9 -6 -20 -9 -11 -3 -18 -1 -14 4 5 9 34 13 34 5z m-323 -12 c-3 -3 -12 -4
-19 -1 -8 3 -5 6 6 6 11 1 17 -2 13 -5z m130 0 c-3 -3 -12 -4 -19 -1 -8 3 -5
6 6 6 11 1 17 -2 13 -5z m240 0 c-3 -3 -12 -4 -19 -1 -8 3 -5 6 6 6 11 1 17
-2 13 -5z m-1280 -20 c-3 -3 -12 -4 -19 -1 -8 3 -5 6 6 6 11 1 17 -2 13 -5z
m270 0 c-3 -3 -12 -4 -19 -1 -8 3 -5 6 6 6 11 1 17 -2 13 -5z m1251 -17 c2
-10 -4 -27 -14 -38 -12 -13 -13 -19 -4 -19 7 0 18 7 25 17 14 19 45 11 45 -11
0 -8 -7 -21 -15 -30 -16 -15 -20 -36 -7 -36 4 0 13 9 20 20 16 26 39 25 48 -2
4 -15 1 -25 -11 -34 -15 -11 -14 -13 12 -17 15 -3 -8 -3 -52 0 -68 3 -84 8
-105 28 -15 14 -29 25 -33 25 -13 0 -7 -23 9 -34 12 -9 1 -10 -48 -5 -35 4
-121 13 -193 19 -183 15 -284 27 -255 29 23 2 24 3 5 12 -16 8 -15 8 8 4 163
-32 414 -55 403 -36 -7 11 22 25 46 22 13 -2 16 3 12 14 -5 11 6 30 32 56 40
41 66 47 72 16z m5143 -8 c-5 -13 -10 -19 -10 -12 -1 15 10 45 15 40 3 -2 0
-15 -5 -28z m-6793 14 c-10 -2 -28 -2 -40 0 -13 2 -5 4 17 4 22 1 32 -1 23 -4z
m131 -10 c3 -2 -19 -3 -48 -2 -28 1 -47 6 -40 10 11 7 78 1 88 -8z m478 11
c-3 -3 -12 -4 -19 -1 -8 3 -5 6 6 6 11 1 17 -2 13 -5z m-299 -11 c-10 -2 -26
-2 -35 0 -10 3 -2 5 17 5 19 0 27 -2 18 -5z m95 0 c-7 -2 -19 -2 -25 0 -7 3
-2 5 12 5 14 0 19 -2 13 -5z m-175 -10 c-15 -2 -42 -2 -60 0 -18 2 -6 4 27 4
33 0 48 -2 33 -4z m1757 -3 c-19 -8 -18 -9 4 -9 13 -1 22 -4 18 -7 -3 -3 -21
-3 -39 1 -29 7 -30 9 -13 16 28 11 56 10 30 -1z m4615 -27 c-11 -17 -11 -17
-6 0 3 10 6 24 7 30 0 9 2 9 5 0 3 -7 0 -20 -6 -30z m-6313 21 c-3 -3 -12 -4
-19 -1 -8 3 -5 6 6 6 11 1 17 -2 13 -5z m170 -7 c-21 -5 -62 -5 -99 1 -63 9
-63 9 37 9 79 -1 92 -3 62 -10z m1666 6 c-7 -2 -21 -2 -30 0 -10 3 -4 5 12 5
17 0 24 -2 18 -5z m-1595 -20 c-10 -2 -26 -2 -35 0 -10 3 -2 5 17 5 19 0 27
-2 18 -5z m157 -8 c6 -2 -11 -4 -37 -4 -27 -1 -48 3 -48 7 0 7 62 5 85 -3z
m1463 8 c-10 -2 -28 -2 -40 0 -13 2 -5 4 17 4 22 1 32 -1 23 -4z m309 -9 c-3
-3 -12 -4 -19 -1 -8 3 -5 6 6 6 11 1 17 -2 13 -5z m-1694 -11 c-7 -2 -21 -2
-30 0 -10 3 -4 5 12 5 17 0 24 -2 18 -5z m582 -3 c-11 -5 -29 -8 -40 -8 -16 0
-15 2 5 8 34 11 60 11 35 0z m5417 -26 c-13 -28 -18 -32 -21 -18 -2 10 2 20 8
22 6 2 11 10 11 18 0 8 4 14 10 14 5 0 2 -16 -8 -36z m-5864 19 c-16 -2 -40
-2 -55 0 -16 2 -3 4 27 4 30 0 43 -2 28 -4z m131 -9 c9 -8 -65 -2 -84 6 -13 6
-2 7 30 3 28 -3 52 -7 54 -9z m168 10 c-3 -3 -12 -4 -19 -1 -8 3 -5 6 6 6 11
1 17 -2 13 -5z m66 -11 c-7 -2 -19 -2 -25 0 -7 3 -2 5 12 5 14 0 19 -2 13 -5z
m1565 0 c-10 -2 -28 -2 -40 0 -13 2 -5 4 17 4 22 1 32 -1 23 -4z m-1450 -10
c-15 -2 -42 -2 -60 0 -18 2 -6 4 27 4 33 0 48 -2 33 -4z m1555 -10 c-7 -2 -19
-2 -25 0 -7 3 -2 5 12 5 14 0 19 -2 13 -5z m74 -9 c-3 -3 -12 -4 -19 -1 -8 3
-5 6 6 6 11 1 17 -2 13 -5z m98 -4 c13 -5 14 -9 5 -9 -8 0 -24 4 -35 9 -13 5
-14 9 -5 9 8 0 24 -4 35 -9z m68 3 c-7 -2 -19 -2 -25 0 -7 3 -2 5 12 5 14 0
19 -2 13 -5z m3332 -2 c3 -5 2 -12 -3 -15 -5 -3 -9 1 -9 9 0 17 3 19 12 6z
m-3720 -11 c13 -5 14 -9 5 -9 -8 0 -24 4 -35 9 -13 5 -14 9 -5 9 8 0 24 -4 35
-9z m458 3 c-7 -2 -19 -2 -25 0 -7 3 -2 5 12 5 14 0 19 -2 13 -5z m-256 -9
c-3 -3 -12 -4 -19 -1 -8 3 -5 6 6 6 11 1 17 -2 13 -5z m200 0 c-3 -3 -12 -4
-19 -1 -8 3 -5 6 6 6 11 1 17 -2 13 -5z m3538 -45 c-30 -59 -64 -99 -80 -93
-8 4 -15 1 -15 -5 0 -6 5 -11 12 -11 6 0 -6 -16 -26 -36 -20 -20 -40 -34 -43
-30 -3 3 8 16 24 30 30 25 37 63 19 97 -5 8 3 1 18 -16 27 -32 34 -28 15 8
l-12 22 23 -20 c21 -18 23 -18 17 -2 -4 10 -3 16 3 12 14 -9 30 29 19 46 -14
22 -10 36 5 16 12 -16 14 -16 20 -1 3 9 3 21 0 27 -5 9 -4 9 5 1 10 -9 9 -19
-4 -45z m-4796 15 c8 -7 -74 -2 -99 6 -16 5 -2 6 35 3 33 -3 62 -7 64 -9z m47
-6 c-9 -5 -22 -7 -29 -4 -7 2 -4 5 6 5 10 1 15 5 12 11 -4 6 1 7 11 3 15 -6
15 -7 0 -15z m107 15 c-7 -2 -19 -2 -25 0 -7 3 -2 5 12 5 14 0 19 -2 13 -5z
m204 1 c-3 -3 -12 -4 -19 -1 -8 3 -5 6 6 6 11 1 17 -2 13 -5z m4154 -13 c-6
-10 -8 -21 -5 -23 2 -3 -4 -11 -13 -19 -16 -13 -17 -12 -4 4 18 23 6 22 -32
-4 -22 -15 -17 -8 13 19 52 47 54 49 41 23z m-2733 2 c-10 -2 -28 -2 -40 0
-13 2 -5 4 17 4 22 1 32 -1 23 -4z m-1598 -13 l25 -8 -25 0 c-14 0 -45 3 -70
7 l-45 8 45 1 c25 0 56 -4 70 -8z m177 4 c-3 -3 -12 -4 -19 -1 -8 3 -5 6 6 6
11 1 17 -2 13 -5z m1536 -11 c-7 -2 -21 -2 -30 0 -10 3 -4 5 12 5 17 0 24 -2
18 -5z m100 0 c-7 -2 -19 -2 -25 0 -7 3 -2 5 12 5 14 0 19 -2 13 -5z m-1680
-10 c-13 -2 -35 -2 -50 0 -16 2 -5 4 22 4 28 0 40 -2 28 -4z m112 -3 c14 -6 5
-9 -35 -9 -39 -1 -51 2 -40 9 18 12 48 12 75 0z m1408 3 c-7 -2 -19 -2 -25 0
-7 3 -2 5 12 5 14 0 19 -2 13 -5z m295 0 c-10 -2 -26 -2 -35 0 -10 3 -2 5 17
5 19 0 27 -2 18 -5z m93 -12 c-8 -5 -20 -7 -28 -4 -21 8 -15 13 15 13 20 0 23
-3 13 -9z m-1708 -8 c-7 -2 -19 -2 -25 0 -7 3 -2 5 12 5 14 0 19 -2 13 -5z
m1840 0 c-7 -2 -19 -2 -25 0 -7 3 -2 5 12 5 14 0 19 -2 13 -5z m-1638 -13 c37
-6 26 -7 -40 -3 -49 3 -92 7 -94 9 -7 7 82 3 134 -6z m472 4 c-3 -3 -12 -4
-19 -1 -8 3 -5 6 6 6 11 1 17 -2 13 -5z m73 -4 l-25 -8 24 -1 c13 -1 22 -4 18
-7 -3 -4 -18 -3 -34 0 -21 6 -24 9 -12 17 7 5 23 8 34 8 16 -1 16 -2 -5 -9z
m-360 -10 c-14 -4 -45 -8 -70 -7 l-45 0 50 7 c73 10 96 10 65 0z m173 -7 c-7
-2 -19 -2 -25 0 -7 3 -2 5 12 5 14 0 19 -2 13 -5z m114 1 c-3 -3 -12 -4 -19
-1 -8 3 -5 6 6 6 11 1 17 -2 13 -5z m1523 -4 c11 -7 4 -10 -25 -9 -31 0 -36 2
-20 9 26 11 28 11 45 0z m-1712 -7 c-16 -2 -40 -2 -55 0 -16 2 -3 4 27 4 30 0
43 -2 28 -4z m1782 3 c0 -2 -7 -6 -15 -10 -8 -3 -15 -1 -15 4 0 6 7 10 15 10
8 0 15 -2 15 -4z m-1707 -13 c-7 -2 -21 -2 -30 0 -10 3 -4 5 12 5 17 0 24 -2
18 -5z m240 0 c-7 -2 -21 -2 -30 0 -10 3 -4 5 12 5 17 0 24 -2 18 -5z m1537
-3 c8 -5 11 -10 5 -10 -5 0 -17 5 -25 10 -8 5 -10 10 -5 10 6 0 17 -5 25 -10z
m84 1 c19 -7 18 -8 -4 -14 -13 -3 -26 -4 -29 -2 -2 3 2 5 10 6 8 0 6 4 -6 9
-25 11 2 12 29 1z m-1659 -11 c37 -6 26 -7 -40 -3 -49 3 -92 7 -94 9 -7 7 82
3 134 -6z m1438 3 c-7 -2 -19 -2 -25 0 -7 3 -2 5 12 5 14 0 19 -2 13 -5z m292
-3 c-3 -5 -14 -10 -23 -9 -14 0 -13 2 3 9 27 11 27 11 20 0z m88 -7 c-7 -2
-21 -2 -30 0 -10 3 -4 5 12 5 17 0 24 -2 18 -5z m1347 -47 l0 -53 50 -7 c30
-4 58 -2 70 4 11 6 25 8 31 5 5 -4 17 -1 25 6 8 6 17 10 20 7 6 -7 -88 -68
-104 -68 -7 0 -12 -4 -12 -10 0 -5 -6 -8 -12 -6 -53 17 -67 16 -65 -3 1 -16 5
-17 25 -10 36 14 40 10 8 -7 -60 -33 -155 -58 -260 -69 -45 -5 -57 -3 -54 7 3
8 22 13 51 12 47 0 61 9 32 20 -21 8 -19 28 6 55 l21 23 38 -41 c34 -36 60
-52 60 -36 0 3 -18 21 -40 41 -47 42 -49 56 -15 74 22 12 27 11 45 -5 20 -18
20 -18 20 27 0 31 6 51 20 66 32 34 40 27 40 -32z m-3032 37 c-10 -2 -26 -2
-35 0 -10 3 -2 5 17 5 19 0 27 -2 18 -5z m1829 1 c-3 -3 -12 -4 -19 -1 -8 3
-5 6 6 6 11 1 17 -2 13 -5z m-1694 -11 c-13 -2 -35 -2 -50 0 -16 2 -5 4 22 4
28 0 40 -2 28 -4z m223 -20 c-2 -2 -39 -1 -82 3 -52 5 -70 10 -54 14 24 6 144
-9 136 -17z m277 20 c-7 -2 -19 -2 -25 0 -7 3 -2 5 12 5 14 0 19 -2 13 -5z
m-136 -9 c-3 -3 -12 -4 -19 -1 -8 3 -5 6 6 6 11 1 17 -2 13 -5z m2363 -4 c-13
-9 -13 -11 0 -20 8 -5 11 -10 5 -10 -5 0 -17 5 -25 10 -13 9 -13 11 0 20 8 5
20 10 25 10 6 0 3 -5 -5 -10z m-2267 -7 c-13 -2 -33 -2 -45 0 -13 2 -3 4 22 4
25 0 35 -2 23 -4z m70 0 c-7 -2 -19 -2 -25 0 -7 3 -2 5 12 5 14 0 19 -2 13 -5z
m1492 -3 c-3 -5 -13 -10 -21 -10 -8 0 -12 5 -9 10 3 6 13 10 21 10 8 0 12 -4
9 -10z m-1662 -7 c-13 -2 -33 -2 -45 0 -13 2 -3 4 22 4 25 0 35 -2 23 -4z
m1722 -3 c13 -5 14 -9 5 -9 -8 0 -24 4 -35 9 -13 5 -14 9 -5 9 8 0 24 -4 35
-9z m581 -5 c-3 -8 0 -15 6 -15 6 0 9 -2 7 -5 -3 -2 -18 0 -35 4 -24 8 -25 9
-6 10 12 1 22 6 22 11 0 6 3 10 6 10 3 0 4 -7 0 -15z m-2146 -5 c14 -4 -8 -5
-50 -2 -41 2 -77 6 -79 8 -8 7 104 2 129 -6z m103 3 c-7 -2 -21 -2 -30 0 -10
3 -4 5 12 5 17 0 24 -2 18 -5z m42 -13 c-3 -5 -21 -9 -38 -9 l-32 2 35 7 c19
4 36 8 38 9 2 0 0 -3 -3 -9z m45 0 c0 -5 26 -11 58 -12 46 -1 49 -2 17 -5 -48
-5 -105 4 -105 17 0 6 7 10 15 10 8 0 15 -4 15 -10z m1318 3 c-10 -2 -26 -2
-35 0 -10 3 -2 5 17 5 19 0 27 -2 18 -5z m556 -2 c4 -5 -3 -7 -14 -4 -23 6
-26 13 -6 13 8 0 17 -4 20 -9z m-327 -7 c-3 -3 -12 -4 -19 -1 -8 3 -5 6 6 6
11 1 17 -2 13 -5z m236 -1 c-7 -2 -19 -2 -25 0 -7 3 -2 5 12 5 14 0 19 -2 13
-5z m44 -9 c-3 -3 -12 -4 -19 -1 -8 3 -5 6 6 6 11 1 17 -2 13 -5z m-1629 -11
c-16 -2 -40 -2 -55 0 -16 2 -3 4 27 4 30 0 43 -2 28 -4z m95 -10 c-13 -2 -33
-2 -45 0 -13 2 -3 4 22 4 25 0 35 -2 23 -4z m172 -8 c38 -4 45 -3 30 5 -17 9
-15 9 10 4 66 -12 42 -22 -41 -17 -49 3 -100 6 -113 5 -18 0 -21 2 -10 9 8 5
28 7 44 5 17 -3 53 -8 80 -11z m152 9 c-3 -3 -12 -4 -19 -1 -8 3 -5 6 6 6 11
1 17 -2 13 -5z m130 0 c-3 -3 -12 -4 -19 -1 -8 3 -5 6 6 6 11 1 17 -2 13 -5z
m160 0 c-3 -3 -12 -4 -19 -1 -8 3 -5 6 6 6 11 1 17 -2 13 -5z m-220 -10 c-3
-3 -12 -4 -19 -1 -8 3 -5 6 6 6 11 1 17 -2 13 -5z m73 -25 c146 -10 257 -25
205 -28 -17 0 -66 3 -110 8 -44 6 -129 13 -190 17 -70 4 -103 10 -90 15 11 4
27 5 35 3 8 -3 76 -10 150 -15z m-17 14 c-7 -2 -19 -2 -25 0 -7 3 -2 5 12 5
14 0 19 -2 13 -5z m125 0 c-16 -2 -40 -2 -55 0 -16 2 -3 4 27 4 30 0 43 -2 28
-4z m230 -50 c-10 -2 -28 -2 -40 0 -13 2 -5 4 17 4 22 1 32 -1 23 -4z m239 1
c-3 -3 -12 -4 -19 -1 -8 3 -5 6 6 6 11 1 17 -2 13 -5z m-149 -11 c-10 -2 -28
-2 -40 0 -13 2 -5 4 17 4 22 1 32 -1 23 -4z m309 1 c-3 -3 -12 -4 -19 -1 -8 3
-5 6 6 6 11 1 17 -2 13 -5z m63 -4 c-12 -8 -12 -10 5 -10 17 -1 17 -3 -5 -11
-13 -6 -45 -8 -70 -5 -25 2 -65 5 -90 6 -34 1 -40 3 -25 10 11 4 29 7 40 5 43
-8 139 -14 126 -9 -11 5 -11 8 0 15 8 5 19 9 24 9 6 0 3 -5 -5 -10z m-227 -7
c-13 -2 -35 -2 -50 0 -16 2 -5 4 22 4 28 0 40 -2 28 -4z m420 -10 c-13 -2 -33
-2 -45 0 -13 2 -3 4 22 4 25 0 35 -2 23 -4z m12 -23 c27 -7 25 -8 -15 -8 -25
0 -72 4 -105 8 l-60 7 75 0 c41 1 89 -3 105 -7z m98 -17 c-7 -2 -21 -2 -30 0
-10 3 -4 5 12 5 17 0 24 -2 18 -5z"/>
<path d="M16801 14398 c-46 -47 -39 -68 8 -27 21 19 42 40 45 47 11 24 -22 12
-53 -20z"/>
<path d="M16420 11470 c0 -5 5 -10 10 -10 6 0 10 5 10 10 0 6 -4 10 -10 10 -5
0 -10 -4 -10 -10z"/>
<path d="M10056 15848 c-32 -29 -57 -127 -86 -328 -22 -156 -60 -522 -60 -577
0 -84 108 -102 149 -25 17 32 42 254 57 497 4 61 9 115 13 122 4 7 40 -76 80
-185 144 -387 199 -472 301 -472 108 0 155 102 206 440 25 170 42 418 31 462
-4 16 -19 30 -38 38 -27 11 -33 11 -57 -7 -26 -19 -28 -27 -48 -209 -29 -249
-70 -481 -94 -523 -10 -19 -28 19 -147 314 -178 441 -231 520 -307 453z"/>
<path d="M8120 15800 c-12 -7 -12 -12 -3 -21 10 -10 14 -9 19 5 8 22 2 27 -16
16z"/>
<path d="M11901 15675 c-39 -50 -81 -299 -121 -713 -21 -219 -17 -244 38 -257
72 -15 102 29 121 180 9 73 41 453 41 490 0 26 22 -21 63 -135 143 -397 207
-508 303 -526 83 -15 143 54 183 211 40 158 88 571 78 664 -5 49 -26 71 -66
71 -53 -1 -61 -17 -77 -171 -31 -296 -82 -579 -104 -579 -9 0 -62 119 -168
381 -96 235 -163 372 -194 393 -34 24 -73 20 -97 -9z"/>
<path d="M8112 15660 c0 -14 2 -19 5 -12 2 6 2 18 0 25 -3 6 -5 1 -5 -13z"/>
<path d="M11070 15451 c-80 -25 -136 -79 -193 -189 -51 -96 -70 -171 -65 -253
4 -83 39 -140 108 -177 39 -20 55 -23 116 -19 59 3 78 9 117 36 95 65 146 173
154 327 7 114 -6 154 -67 216 -64 64 -105 78 -170 59z m110 -231 c0 -93 -38
-201 -87 -246 -51 -47 -123 -18 -123 49 0 73 71 229 124 274 l30 25 28 -31
c21 -23 28 -42 28 -71z"/>
<path d="M13450 15442 c-15 -12 -30 -46 -45 -102 -24 -93 -14 -86 -101 -77
-19 1 -32 -6 -47 -25 l-21 -28 21 -27 c11 -16 36 -32 56 -38 19 -5 36 -13 37
-18 1 -4 -4 -40 -11 -80 -7 -39 -13 -117 -13 -172 0 -104 19 -170 62 -219 39
-44 104 -76 157 -76 56 0 77 11 143 74 73 69 90 122 50 150 -36 25 -52 19
-118 -45 -34 -33 -69 -59 -78 -57 -24 5 -51 49 -60 98 -12 61 5 213 34 322 4
13 21 17 95 20 81 3 93 6 110 27 24 29 24 33 0 62 -16 20 -30 24 -96 27 l-77
4 6 57 c13 111 -41 174 -104 123z"/>
<path d="M12901 15277 c-52 -17 -131 -103 -173 -188 -69 -138 -84 -245 -47
-324 78 -167 307 -164 414 5 65 103 92 315 50 392 -11 20 -44 57 -73 83 -46
38 -60 45 -95 44 -23 -1 -57 -6 -76 -12z m106 -149 c19 -18 23 -32 23 -83 0
-161 -91 -298 -169 -254 -24 14 -26 20 -25 85 0 57 6 81 33 136 36 71 86 138
104 138 6 0 21 -10 34 -22z"/>
<path d="M14109 15176 c-147 -41 -243 -143 -269 -284 -27 -153 33 -303 145
-358 52 -25 63 -26 148 -22 77 4 103 11 160 38 80 38 103 65 86 103 -17 38
-49 41 -115 10 -67 -31 -177 -43 -214 -23 -29 15 -58 82 -66 152 l-6 55 83 5
c126 8 226 64 270 151 65 127 -53 219 -222 173z m111 -116 c0 -33 -78 -81
-152 -94 -45 -8 -48 1 -10 37 49 46 162 86 162 57z"/>
<path d="M14600 15164 c-77 -33 -120 -96 -120 -174 0 -80 21 -110 162 -228 95
-80 158 -145 158 -162 0 -18 -85 -10 -169 15 -60 18 -88 22 -106 15 -27 -10
-41 -47 -30 -79 11 -36 178 -101 261 -101 53 0 126 28 160 61 87 85 34 193
-183 374 -96 79 -111 105 -79 138 29 29 152 -8 176 -53 27 -50 89 -50 110 0
18 44 -1 102 -45 137 -80 64 -218 90 -295 57z"/>
<path d="M11434 14235 c-20 -30 -16 -41 56 -170 63 -113 128 -208 184 -269 20
-22 36 -42 36 -45 0 -4 -16 -26 -36 -51 -115 -144 -205 -277 -223 -331 -15
-48 -2 -83 37 -97 47 -16 82 10 159 118 37 53 127 172 198 264 272 353 332
445 318 482 -10 27 -34 43 -65 44 -22 0 -46 -23 -142 -138 -63 -76 -122 -145
-131 -152 -15 -12 -21 -9 -51 26 -18 21 -73 95 -121 163 -126 178 -129 181
-169 181 -25 0 -38 -6 -50 -25z"/>
<path d="M12889 14026 c-17 -16 -30 -50 -43 -105 -10 -45 -23 -81 -29 -81 -6
0 -25 5 -43 12 -27 9 -37 9 -58 -6 -50 -32 -23 -101 45 -112 21 -4 39 -7 39
-8 0 0 -7 -37 -15 -81 -31 -172 -14 -321 46 -397 54 -68 161 -98 227 -64 38
19 142 131 143 153 2 32 -2 47 -19 60 -31 23 -60 15 -99 -28 -21 -23 -51 -50
-66 -61 l-28 -20 -25 23 c-13 12 -29 41 -35 63 -14 51 -5 188 19 282 l17 69
80 6 c99 7 122 15 130 40 17 54 -20 79 -120 79 l-63 0 5 75 c5 69 4 78 -17
100 -30 31 -61 32 -91 1z"/>
<path d="M12337 13879 c-101 -24 -203 -104 -248 -194 -35 -73 -40 -216 -8
-300 27 -75 96 -148 154 -164 92 -25 224 -7 310 43 56 33 72 60 55 91 -19 36
-51 38 -116 7 -49 -22 -73 -27 -137 -27 -72 0 -80 2 -98 25 -21 28 -36 74 -45
144 l-7 46 61 0 c88 0 180 32 237 82 156 138 55 297 -158 247z m92 -140 c-24
-34 -81 -63 -141 -72 -45 -7 -47 1 -10 35 39 37 102 67 140 68 l33 0 -22 -31z"/>
<path d="M17866 13490 c-7 -17 -54 -171 -151 -495 -71 -239 -113 -376 -169
-555 -19 -63 -64 -212 -100 -330 -57 -189 -120 -397 -202 -665 -14 -44 -34
-111 -45 -150 -11 -38 -43 -141 -70 -229 -27 -87 -48 -160 -47 -162 2 -1 55
40 118 93 174 144 501 417 514 428 6 6 52 44 101 85 50 40 111 92 136 114 25
23 80 70 123 105 43 36 83 69 90 76 6 6 59 50 118 98 59 48 105 93 103 100 -2
7 -22 86 -45 177 -91 368 -227 772 -383 1135 -74 172 -84 193 -91 175z"/>
<path d="M18389 11924 c-2 -5 -125 -111 -273 -234 -148 -124 -384 -322 -525
-440 -142 -118 -323 -270 -403 -337 -103 -87 -148 -131 -152 -150 -4 -16 -36
-122 -71 -238 -35 -115 -101 -331 -145 -480 -45 -148 -104 -342 -131 -429 -27
-88 -48 -160 -46 -161 2 -2 47 19 387 184 199 96 449 217 595 286 163 77 620
297 740 356 45 21 86 39 92 39 32 0 48 201 48 580 -1 366 -10 481 -67 815 -30
180 -42 228 -49 209z"/>
<path d="M8362 10554 c-29 -21 -1 -34 94 -44 49 -5 99 -10 112 -10 22 0 41 25
28 38 -4 3 -54 11 -112 17 -82 9 -109 8 -122 -1z"/>
<path d="M8941 10501 c-18 -12 -7 -41 16 -41 10 0 99 -9 198 -19 154 -16 182
-17 195 -5 26 25 -3 34 -161 49 -85 8 -172 17 -194 20 -22 3 -46 1 -54 -4z"/>
<path d="M9690 10415 c0 -9 10 -19 23 -24 31 -11 375 -44 387 -36 18 11 11 34
-12 40 -32 6 -326 35 -365 35 -23 0 -33 -5 -33 -15z"/>
<path d="M10446 10343 c-8 -19 9 -32 44 -33 14 -1 101 -9 193 -19 140 -14 170
-15 179 -4 7 9 8 17 1 24 -7 7 -352 49 -404 49 -4 0 -10 -8 -13 -17z"/>
<path d="M11200 10260 c0 -11 2 -20 3 -20 2 0 93 -9 202 -20 197 -20 224 -18
212 12 -4 11 -52 19 -178 31 -227 22 -239 22 -239 -3z"/>
<path d="M11957 10196 c-3 -8 0 -19 6 -24 7 -5 99 -18 205 -27 147 -14 196
-15 204 -7 24 24 -12 34 -193 53 -223 23 -216 22 -222 5z"/>
<path d="M12710 10117 c0 -9 4 -18 9 -21 18 -12 396 -45 405 -36 32 32 -50 49
-318 67 -84 5 -96 4 -96 -10z"/>
<path d="M13464 10049 c-16 -26 26 -37 214 -54 144 -13 196 -15 205 -6 24 24
-16 36 -186 52 -210 21 -224 22 -233 8z"/>
<path d="M14223 9974 c-3 -8 -2 -19 3 -24 10 -10 394 -51 406 -44 14 9 9 44
-6 44 -20 0 -315 29 -359 35 -28 4 -39 2 -44 -11z"/>
<path d="M14977 9896 c-10 -25 20 -34 137 -42 101 -6 108 -6 105 11 -5 23 -33
31 -147 40 -76 6 -90 5 -95 -9z"/>
<path d="M8150 9520 c-7 -4 -10 -15 -7 -23 6 -16 70 -26 187 -30 49 -2 55 0
55 18 0 17 -9 21 -55 26 -124 15 -167 17 -180 9z"/>
<path d="M8723 9455 c-3 -9 -3 -19 1 -22 7 -8 174 -28 319 -38 94 -7 97 -7 97
13 0 24 1 23 -234 47 -182 18 -175 18 -183 0z"/>
<path d="M9491 9392 c-13 -4 -15 -29 -2 -37 19 -11 395 -45 404 -36 17 17 -1
41 -30 42 -15 0 -103 8 -194 17 -92 10 -172 16 -178 14z"/>
<path d="M10234 9308 c-4 -6 0 -16 9 -23 21 -15 395 -51 407 -39 26 26 -12 37
-186 55 -213 22 -221 22 -230 7z"/>
<path d="M11003 9243 c-20 -7 -16 -43 5 -43 9 0 100 -9 201 -20 102 -10 188
-17 193 -14 10 6 10 31 1 37 -5 3 -82 12 -173 21 -91 9 -176 18 -190 20 -14 2
-31 2 -37 -1z"/>
<path d="M11744 9158 c-15 -24 30 -35 217 -52 158 -14 193 -15 200 -4 5 7 4
17 -1 22 -9 9 -300 44 -377 45 -17 1 -35 -4 -39 -11z"/>
<path d="M12503 9084 c-3 -8 -2 -19 3 -24 10 -10 382 -49 402 -42 14 5 16 28
4 36 -7 4 -370 46 -398 46 -2 0 -7 -7 -11 -16z"/>
<path d="M13254 9009 c-3 -6 -2 -15 4 -21 12 -12 388 -52 409 -44 21 9 15 35
-9 40 -30 6 -336 36 -370 36 -15 0 -30 -5 -34 -11z"/>
<path d="M14013 8934 c-3 -8 -2 -19 3 -24 9 -8 310 -40 378 -40 36 0 50 20 25
35 -8 5 -346 44 -392 45 -4 0 -10 -7 -14 -16z"/>
<path d="M14767 8857 c-9 -24 3 -27 114 -39 107 -10 129 -8 129 16 0 20 -17
24 -136 32 -87 5 -102 4 -107 -9z"/>
<path d="M7794 2833 c-58 -4 -62 -6 -68 -31 -3 -15 -14 -38 -25 -52 l-19 -24
-259 -8 c-340 -9 -673 -37 -813 -66 l-35 -8 -6 -84 -5 -85 -2 108 -2 107 -217
0 c-253 0 -965 -17 -1100 -26 l-93 -6 0 -44 0 -45 -32 31 c-81 77 -252 148
-407 171 -118 17 -307 7 -396 -21 -81 -25 -85 -28 -65 -40 13 -8 13 -10 -2
-10 -46 0 -178 -92 -197 -137 -7 -15 -23 -36 -36 -46 -25 -18 -25 -18 -25 5 0
13 -3 33 -6 46 -8 29 -19 29 -360 -3 -1167 -108 -1916 -263 -2093 -435 -36
-35 -41 -46 -41 -84 0 -40 4 -48 50 -89 221 -199 1162 -368 2620 -471 849 -60
1488 -80 2595 -80 1638 0 2880 66 3942 209 735 100 1229 237 1323 367 35 48
37 71 10 115 -140 231 -1337 440 -3077 537 l-263 15 -67 41 c-120 72 -300 119
-543 140 -112 10 -158 10 -286 3z m-23 -31 c-7 -2 -18 1 -23 6 -8 8 -4 9 13 5
13 -4 18 -8 10 -11z m96 -74 c-3 -8 -6 -5 -6 6 -1 11 2 17 5 13 3 -3 4 -12 1
-19z m-3440 -54 c-3 -3 -12 -4 -19 -1 -8 3 -5 6 6 6 11 1 17 -2 13 -5z m46
-11 c-7 -2 -19 -2 -25 0 -7 3 -2 5 12 5 14 0 19 -2 13 -5z m3027 -83 l0 -48
60 -7 c33 -4 60 -10 60 -13 0 -4 -7 -15 -15 -26 -11 -14 -24 -17 -59 -14 -42
3 -46 1 -46 -19 0 -13 5 -23 10 -23 16 0 12 -25 -8 -48 l-19 -21 -61 62 c-66
66 -73 85 -43 104 16 10 24 8 47 -9 l27 -22 -6 46 c-5 38 -3 51 14 72 27 35
39 25 39 -34z m-2815 0 c3 -6 -1 -7 -9 -4 -18 7 -21 14 -7 14 6 0 13 -4 16
-10z m4114 -31 c23 -25 35 -70 26 -98 -10 -33 -126 -132 -215 -185 -311 -185
-928 -361 -1530 -437 -145 -18 -295 -16 -356 4 -102 35 -157 106 -170 221 -6
54 12 139 25 118 10 -17 110 -39 256 -58 339 -43 996 46 1418 193 208 72 402
170 464 235 32 34 55 35 82 7z m-3988 -66 c13 -16 12 -17 -3 -4 -17 13 -22 21
-14 21 2 0 10 -8 17 -17z m2569 -48 l44 -45 -24 -25 -24 -25 -44 44 c-43 44
-43 45 -27 70 10 14 20 26 24 26 4 0 27 -20 51 -45z m-3396 1 c-3 -9 -10 -13
-15 -10 -5 3 -3 11 4 19 15 16 19 13 11 -9z m856 4 c0 -5 -2 -10 -4 -10 -3 0
-8 5 -11 10 -3 6 -1 10 4 10 6 0 11 -4 11 -10z m2479 -66 c23 -29 28 -64 10
-64 -6 0 -9 -6 -6 -14 6 -16 -24 -31 -79 -42 l-39 -7 33 32 c34 35 40 51 18
51 -14 0 -66 -61 -66 -79 0 -13 -9 -18 -51 -26 -55 -10 -46 18 26 90 94 94
119 104 154 59z m-3375 -28 c-3 -15 -8 -25 -11 -23 -2 3 -1 17 3 31 3 15 8 25
11 23 2 -3 1 -17 -3 -31z m3596 30 c0 -3 -4 -8 -10 -11 -5 -3 -10 -1 -10 4 0
6 5 11 10 11 6 0 10 -2 10 -4z m-82 -19 c8 -9 4 -19 -14 -36 -21 -20 -27 -22
-35 -10 -13 21 -11 30 9 45 22 17 27 17 40 1z m-2549 -47 c0 -9 -4 -8 -9 5 -5
11 -9 27 -9 35 0 9 4 8 9 -5 5 -11 9 -27 9 -35z m2656 40 c-3 -5 -12 -10 -18
-10 -7 0 -6 4 3 10 19 12 23 12 15 0z m-3638 -82 c-3 -8 -6 -5 -6 6 -1 11 2
17 5 13 3 -3 4 -12 1 -19z m990 -10 c-3 -7 -5 -2 -5 12 0 14 2 19 5 13 2 -7 2
-19 0 -25z m1660 -55 c-3 -10 -5 -4 -5 12 0 17 2 24 5 18 2 -7 2 -21 0 -30z
m-2572 -4 c33 -5 155 -11 270 -14 136 -3 191 -1 157 4 -71 12 -79 22 -11 14
30 -3 64 -13 77 -21 14 -9 22 -10 22 -3 0 6 7 11 16 11 8 0 12 -4 9 -10 -4 -7
50 -9 157 -8 111 1 145 3 108 8 l-55 7 58 1 c31 1 57 -2 57 -6 0 -17 227 7
328 34 22 6 22 6 22 -109 0 -108 -2 -117 -25 -145 -62 -74 -290 -115 -635
-115 -331 1 -550 42 -618 116 -21 22 -24 38 -29 143 -6 113 -5 117 13 110 10
-4 46 -12 79 -17z m8 14 c-7 -2 -21 -2 -30 0 -10 3 -4 5 12 5 17 0 24 -2 18
-5z m94 1 c-3 -3 -12 -4 -19 -1 -8 3 -5 6 6 6 11 1 17 -2 13 -5z m2983 -4 c0
-5 -6 -10 -14 -10 -8 0 -23 -3 -33 -6 -16 -6 -16 -5 2 9 23 19 45 22 45 7z
m-2323 -6 c-3 -3 -12 -4 -19 -1 -8 3 -5 6 6 6 11 1 17 -2 13 -5z m-100 -20
c-3 -3 -12 -4 -19 -1 -8 3 -5 6 6 6 11 1 17 -2 13 -5z m76 -1 c-7 -2 -21 -2
-30 0 -10 3 -4 5 12 5 17 0 24 -2 18 -5z"/>
</g>
</svg>
